<svg width="48" height="38" viewBox="0 0 48 38" fill="none" xmlns="http://www.w3.org/2000/svg">
<g filter="url(#filter0_d_816_6996)">
<ellipse cx="24" cy="15.6666" rx="20" ry="14.3333" fill="#964C5F"/>
<ellipse cx="24" cy="14" rx="20" ry="14" fill="#DCC0FF"/>
<path d="M37.2327 23.5469C38.3565 22.6609 37.9743 21.4643 37.6427 20.9768C35.6775 20.492 34.761 21.4157 34.5483 21.9381C33.9194 22.5719 32.8914 23.9775 33.8118 24.5291C34.9622 25.2187 35.8279 24.6545 37.2327 23.5469Z" fill="white"/>
<ellipse cx="0.980171" cy="0.768091" rx="0.980171" ry="0.768091" transform="matrix(-0.999734 0.0640003 -0.222523 -0.979622 32.4851 26.1568)" fill="white"/>
<path d="M11.0023 5.80852C9.59254 6.75697 9.88384 8.10401 10.2057 8.65897C12.4154 9.26763 13.5904 8.27002 13.9017 7.69513C14.708 7.01053 16.0723 5.47961 15.0782 4.83276C13.8356 4.0242 12.7645 4.62296 11.0023 5.80852Z" fill="white"/>
<ellipse cx="1.13986" cy="0.849507" rx="1.13986" ry="0.849507" transform="matrix(1.00004 -0.0314362 0.121172 0.994123 16.6267 3.07166)" fill="white"/>
</g>
<defs>
<filter id="filter0_d_816_6996" x="0" y="0" width="48" height="38" filterUnits="userSpaceOnUse" color-interpolation-filters="sRGB">
<feFlood flood-opacity="0" result="BackgroundImageFix"/>
<feColorMatrix in="SourceAlpha" type="matrix" values="0 0 0 0 0 0 0 0 0 0 0 0 0 0 0 0 0 0 127 0" result="hardAlpha"/>
<feOffset dy="4"/>
<feGaussianBlur stdDeviation="2"/>
<feComposite in2="hardAlpha" operator="out"/>
<feColorMatrix type="matrix" values="0 0 0 0 0 0 0 0 0 0 0 0 0 0 0 0 0 0 0.25 0"/>
<feBlend mode="normal" in2="BackgroundImageFix" result="effect1_dropShadow_816_6996"/>
<feBlend mode="normal" in="SourceGraphic" in2="effect1_dropShadow_816_6996" result="shape"/>
</filter>
</defs>
</svg>
