<svg width="40" height="30" viewBox="0 0 40 30" fill="none" xmlns="http://www.w3.org/2000/svg">
<ellipse cx="20" cy="15.6667" rx="20" ry="14.3333" fill="#964C5F"/>
<ellipse cx="20" cy="14" rx="20" ry="14" fill="#FFF7E9"/>
<path d="M33.2329 23.5469C34.3568 22.6609 33.9745 21.4643 33.643 20.9767C31.6777 20.492 30.7612 21.4156 30.5486 21.938C29.9196 22.5719 28.8917 23.9775 29.812 24.5291C30.9624 25.2186 31.8281 24.6544 33.2329 23.5469Z" fill="white"/>
<ellipse cx="0.980171" cy="0.768091" rx="0.980171" ry="0.768091" transform="matrix(-0.999734 0.0640003 -0.222523 -0.979622 28.4854 26.1567)" fill="white"/>
<path d="M7.00257 5.80851C5.59279 6.75697 5.88408 8.104 6.20595 8.65897C8.41566 9.26763 9.59064 8.27001 9.90192 7.69513C10.7083 7.01052 12.0725 5.47961 11.0784 4.83276C9.83585 4.0242 8.76479 4.62295 7.00257 5.80851Z" fill="white"/>
<ellipse cx="1.13986" cy="0.849507" rx="1.13986" ry="0.849507" transform="matrix(1.00004 -0.0314362 0.121172 0.994123 12.627 3.07165)" fill="white"/>
</svg>
