<svg width="48" height="38" viewBox="0 0 48 38" fill="none" xmlns="http://www.w3.org/2000/svg">
<g filter="url(#filter0_d_669_1572)">
<ellipse cx="24" cy="15.6667" rx="20" ry="14.3333" fill="#964C5F"/>
<ellipse cx="24" cy="14" rx="20" ry="14" fill="#C8C4E0"/>
<path d="M37.2316 23.5433C38.3492 22.6568 37.9631 21.4628 37.6304 20.9765C35.668 20.4957 34.7573 21.4194 34.5473 21.9413C33.9223 22.5752 32.9025 23.9802 33.8228 24.5295C34.9732 25.216 35.8345 24.6513 37.2316 23.5433Z" fill="white"/>
<ellipse cx="0.97783" cy="0.766984" rx="0.97783" ry="0.766984" transform="matrix(-0.999484 0.0656776 -0.226216 -0.979093 32.4849 26.1538)" fill="white"/>
<path d="M11.0027 5.81108C9.59769 6.75982 9.8919 8.10508 10.2146 8.65912C12.4222 9.26499 13.5927 8.26737 13.9021 7.69282C14.7054 7.00821 16.0634 5.4777 15.0694 4.83252C13.8268 4.02605 12.7591 4.62515 11.0027 5.81108Z" fill="white"/>
<ellipse cx="1.13798" cy="0.848619" rx="1.13798" ry="0.848619" transform="matrix(0.99997 -0.0324084 0.123612 0.993929 16.6265 3.07375)" fill="white"/>
</g>
<defs>
<filter id="filter0_d_669_1572" x="0" y="0" width="48" height="38" filterUnits="userSpaceOnUse" color-interpolation-filters="sRGB">
<feFlood flood-opacity="0" result="BackgroundImageFix"/>
<feColorMatrix in="SourceAlpha" type="matrix" values="0 0 0 0 0 0 0 0 0 0 0 0 0 0 0 0 0 0 127 0" result="hardAlpha"/>
<feOffset dy="4"/>
<feGaussianBlur stdDeviation="2"/>
<feComposite in2="hardAlpha" operator="out"/>
<feColorMatrix type="matrix" values="0 0 0 0 0 0 0 0 0 0 0 0 0 0 0 0 0 0 0.25 0"/>
<feBlend mode="normal" in2="BackgroundImageFix" result="effect1_dropShadow_669_1572"/>
<feBlend mode="normal" in="SourceGraphic" in2="effect1_dropShadow_669_1572" result="shape"/>
</filter>
</defs>
</svg>
