<svg width="48" height="38" viewBox="0 0 48 38" fill="none" xmlns="http://www.w3.org/2000/svg">
<g filter="url(#filter0_d_816_6983)">
<ellipse cx="24" cy="15.6666" rx="20" ry="14.3333" fill="#964C5F"/>
<ellipse cx="24" cy="14" rx="20" ry="14" fill="#958EBB"/>
<path d="M37.2329 23.5469C38.3568 22.6609 37.9745 21.4643 37.643 20.9768C35.6777 20.492 34.7612 21.4157 34.5486 21.9381C33.9196 22.5719 32.8917 23.9775 33.812 24.5291C34.9624 25.2187 35.8281 24.6545 37.2329 23.5469Z" fill="white"/>
<ellipse cx="0.980171" cy="0.768091" rx="0.980171" ry="0.768091" transform="matrix(-0.999734 0.0640003 -0.222523 -0.979622 32.4854 26.1568)" fill="white"/>
<path d="M11.0026 5.80852C9.59279 6.75697 9.88408 8.10401 10.2059 8.65897C12.4157 9.26763 13.5906 8.27002 13.9019 7.69513C14.7083 7.01053 16.0725 5.47961 15.0784 4.83276C13.8358 4.0242 12.7648 4.62296 11.0026 5.80852Z" fill="white"/>
<ellipse cx="1.13986" cy="0.849507" rx="1.13986" ry="0.849507" transform="matrix(1.00004 -0.0314362 0.121172 0.994123 16.627 3.07166)" fill="white"/>
</g>
<defs>
<filter id="filter0_d_816_6983" x="0" y="0" width="48" height="38" filterUnits="userSpaceOnUse" color-interpolation-filters="sRGB">
<feFlood flood-opacity="0" result="BackgroundImageFix"/>
<feColorMatrix in="SourceAlpha" type="matrix" values="0 0 0 0 0 0 0 0 0 0 0 0 0 0 0 0 0 0 127 0" result="hardAlpha"/>
<feOffset dy="4"/>
<feGaussianBlur stdDeviation="2"/>
<feComposite in2="hardAlpha" operator="out"/>
<feColorMatrix type="matrix" values="0 0 0 0 0 0 0 0 0 0 0 0 0 0 0 0 0 0 0.25 0"/>
<feBlend mode="normal" in2="BackgroundImageFix" result="effect1_dropShadow_816_6983"/>
<feBlend mode="normal" in="SourceGraphic" in2="effect1_dropShadow_816_6983" result="shape"/>
</filter>
</defs>
</svg>
