<svg width="40" height="30" viewBox="0 0 40 30" fill="none" xmlns="http://www.w3.org/2000/svg">
<g clip-path="url(clip0_803_5913)">
<ellipse cx="20" cy="15.6667" rx="20" ry="14.3333" fill="#964C5F"/>
<ellipse cx="20" cy="14" rx="20" ry="14" fill="#DECE96"/>
<path d="M33.2327 23.5469C34.3565 22.6609 33.9743 21.4643 33.6427 20.9767C31.6775 20.4919 30.761 21.4156 30.5483 21.938C29.9194 22.5719 28.8914 23.9775 29.8118 24.5291C30.9622 25.2186 31.8279 24.6544 33.2327 23.5469Z" fill="white"/>
<ellipse cx="0.980171" cy="0.768091" rx="0.980171" ry="0.768091" transform="matrix(-0.999734 0.0640003 -0.222523 -0.979622 28.4851 26.1567)" fill="white"/>
<path d="M7.00232 5.80852C5.59254 6.75697 5.88384 8.10401 6.20571 8.65897C8.41542 9.26763 9.5904 8.27002 9.90168 7.69513C10.708 7.01053 12.0723 5.47961 11.0782 4.83276C9.8356 4.0242 8.76455 4.62296 7.00232 5.80852Z" fill="white"/>
<ellipse cx="1.13986" cy="0.849507" rx="1.13986" ry="0.849507" transform="matrix(1.00004 -0.0314362 0.121172 0.994123 12.6267 3.07166)" fill="white"/>
</g>
<defs>
<clipPath id="clip0_803_5913">
<rect width="40" height="30" fill="white"/>
</clipPath>
</defs>
</svg>
