<svg width="19" height="13" viewBox="0 0 19 13" fill="none" xmlns="http://www.w3.org/2000/svg">
<path d="M18.601 5.84531L10.4527 0.270039C10.1984 0.0970809 9.85435 0 9.49576 0C9.13717 0 8.79314 0.0970809 8.53883 0.270039L0.394708 5.84531C0.1419 6.01931 0 6.25467 0 6.5C0 6.74533 0.1419 6.9807 0.394708 7.15469L8.54307 12.73C8.79738 12.9029 9.14141 13 9.5 13C9.85859 13 10.2026 12.9029 10.4569 12.73L18.6053 7.15469C18.8581 6.9807 19 6.74533 19 6.5C19 6.25467 18.8581 6.01931 18.6053 5.84531H18.601Z" fill="#6F4C18" fill-opacity="0.65"/>
</svg>
