<svg width="27" height="20" viewBox="0 0 27 20" fill="none" xmlns="http://www.w3.org/2000/svg">
<g opacity="0.3" filter="url(#filter0_d_669_482)">
<path d="M22.8588 3.70848C22.8588 7.9378 13.7495 11.5263 13.7495 11.5263C13.7495 11.5263 4.64014 7.9378 4.64014 3.70848C4.64014 2.79074 5.13846 1.91058 6.02548 1.26164C6.91249 0.612695 8.11555 0.248123 9.36998 0.248123C11.3486 0.248123 13.0435 1.03696 13.7495 2.2987C14.4554 1.03696 16.1503 0.248123 18.129 0.248123C19.3834 0.248123 20.5864 0.612695 21.4735 1.26164C22.3605 1.91058 22.8588 2.79074 22.8588 3.70848Z" fill="black"/>
<path d="M13.3131 2.54285L13.7495 3.3227L14.1858 2.54285C14.7711 1.49679 16.2538 0.748123 18.129 0.748123C19.2929 0.748123 20.3887 1.08755 21.1782 1.66517C21.9653 2.24098 22.3588 2.98275 22.3588 3.70848C22.3588 4.58448 21.8842 5.48527 21.067 6.37631C20.2558 7.26074 19.1591 8.0782 18.0388 8.7796C16.9221 9.47872 15.8023 10.0501 14.9596 10.4472C14.5389 10.6455 14.1887 10.7997 13.9445 10.904C13.869 10.9363 13.8036 10.9638 13.7495 10.9863C13.6953 10.9638 13.63 10.9363 13.5544 10.904C13.3102 10.7997 12.96 10.6455 12.5393 10.4472C11.6967 10.0501 10.5768 9.47872 9.46013 8.7796C8.33983 8.0782 7.24309 7.26074 6.43196 6.37631C5.61477 5.48527 5.14014 4.58448 5.14014 3.70848C5.14014 2.98275 5.53366 2.24098 6.3207 1.66517C7.11024 1.08755 8.20608 0.748123 9.36998 0.748123C11.2451 0.748123 12.7278 1.49679 13.3131 2.54285Z" stroke="black"/>
</g>
<defs>
<filter id="filter0_d_669_482" x="0.640137" y="0.248123" width="26.2188" height="19.2782" filterUnits="userSpaceOnUse" color-interpolation-filters="sRGB">
<feFlood flood-opacity="0" result="BackgroundImageFix"/>
<feColorMatrix in="SourceAlpha" type="matrix" values="0 0 0 0 0 0 0 0 0 0 0 0 0 0 0 0 0 0 127 0" result="hardAlpha"/>
<feOffset dy="4"/>
<feGaussianBlur stdDeviation="2"/>
<feComposite in2="hardAlpha" operator="out"/>
<feColorMatrix type="matrix" values="0 0 0 0 0 0 0 0 0 0 0 0 0 0 0 0 0 0 0.25 0"/>
<feBlend mode="normal" in2="BackgroundImageFix" result="effect1_dropShadow_669_482"/>
<feBlend mode="normal" in="SourceGraphic" in2="effect1_dropShadow_669_482" result="shape"/>
</filter>
</defs>
</svg>
