<svg width="19" height="12" viewBox="0 0 19 12" fill="none" xmlns="http://www.w3.org/2000/svg">
<path d="M9.82702 0.0469859C9.72549 0.0160873 9.61353 0 9.5 0C9.38647 0 9.27451 0.0160873 9.17298 0.0469859C8.79846 0.160877 4.26306e-07 2.87982 4.26306e-07 6.66656C-0.000331993 7.16183 0.193747 7.64998 0.566099 8.09044C0.938452 8.5309 1.47832 8.91092 2.1408 9.19892C2.80328 9.48692 3.56924 9.67456 4.37498 9.74624C5.18072 9.81793 6.00296 9.77158 6.77332 9.61106L5.87721 11.4278C5.84446 11.4941 5.83767 11.5642 5.85738 11.6325C5.8771 11.7007 5.92276 11.7652 5.99074 11.8208C6.05872 11.8764 6.14713 11.9215 6.2489 11.9526C6.35068 11.9838 6.46301 12 6.57692 12H12.4231C12.537 12 12.6493 11.9838 12.7511 11.9526C12.8529 11.9215 12.9413 11.8764 13.0093 11.8208C13.0772 11.7652 13.1229 11.7007 13.1426 11.6325C13.1623 11.5642 13.1555 11.4941 13.1228 11.4278L12.2267 9.61106C12.997 9.77158 13.8193 9.81793 14.625 9.74624C15.4308 9.67456 16.1967 9.48692 16.8592 9.19892C17.5217 8.91092 18.0615 8.5309 18.4339 8.09044C18.8063 7.64998 19.0003 7.16183 19 6.66656C19 2.87982 10.2015 0.160877 9.82702 0.0469859Z" fill="black" fill-opacity="0.62"/>
</svg>
