<svg width="19" height="12" viewBox="0 0 19 12" fill="none" xmlns="http://www.w3.org/2000/svg">
<path d="M14.2512 3.99946C14.185 3.99946 14.1188 3.99946 14.0535 3.99946C14.2647 3.5351 14.3073 3.04487 14.1781 2.56781C14.0489 2.09075 13.7513 1.64004 13.309 1.25161C12.8668 0.863177 12.2921 0.547747 11.6308 0.330451C10.9695 0.113155 10.2399 0 9.5 0C8.76013 0 8.03047 0.113155 7.36918 0.330451C6.70789 0.547747 6.13323 0.863177 5.69099 1.25161C5.24875 1.64004 4.95115 2.09075 4.8219 2.56781C4.69265 3.04487 4.73533 3.5351 4.94653 3.99946C4.88035 3.99946 4.81502 3.99946 4.74885 3.99946C4.03432 3.99968 3.32907 4.10545 2.6856 4.30887C2.04213 4.51229 1.47701 4.80814 1.03231 5.17439C0.587613 5.54063 0.274785 5.96785 0.117115 6.42423C-0.0405544 6.8806 -0.0390047 7.35439 0.121649 7.81033C0.282303 8.26626 0.597924 8.69259 1.04502 9.05759C1.49211 9.42258 2.05916 9.71684 2.70395 9.91846C3.34875 10.1201 4.05468 10.2239 4.7692 10.2221C5.48372 10.2203 6.18843 10.113 6.83087 9.90819L6.13516 11.4277C6.10475 11.4941 6.09844 11.5642 6.11675 11.6324C6.13506 11.7007 6.17747 11.7652 6.24061 11.8208C6.30375 11.8764 6.38586 11.9215 6.48039 11.9526C6.57492 11.9838 6.67925 12 6.78505 12H12.2149C12.3207 12 12.4251 11.9838 12.5196 11.9526C12.6141 11.9215 12.6963 11.8764 12.7594 11.8208C12.8225 11.7652 12.8649 11.7007 12.8833 11.6324C12.9016 11.5642 12.8953 11.4941 12.8648 11.4277L12.1691 9.90819C12.8116 10.113 13.5163 10.2203 14.2308 10.2221C14.9453 10.2239 15.6513 10.1201 16.296 9.91846C16.9408 9.71684 17.5079 9.42258 17.955 9.05759C18.4021 8.69259 18.7177 8.26626 18.8784 7.81033C19.039 7.35439 19.0406 6.8806 18.8829 6.42423C18.7252 5.96785 18.4124 5.54063 17.9677 5.17439C17.523 4.80814 16.9579 4.51229 16.3144 4.30887C15.6709 4.10545 14.9657 3.99968 14.2512 3.99946Z" fill="#58B5F9"/>
</svg>
